<svg version="1.1" id="Layer_1" xmlns="http://www.w3.org/2000/svg" xmlns:xlink="http://www.w3.org/1999/xlink" x="0px" y="0px"
	 width="100%" viewBox="0 0 780 1120" enable-background="new 0 0 780 1120" xml:space="preserve">
	 <path fill="#58BBA6" opacity="1.000000" stroke="none" 
	d="
M680.840210,419.130829 
	C680.896973,419.877258 680.953735,420.623688 681.109314,422.123505 
	C682.433411,432.257446 683.658630,441.638000 684.723694,451.185852 
	C684.717224,451.888580 684.870850,452.424011 685.012817,453.420074 
	C685.301697,458.927856 685.602234,463.975037 685.739380,469.185364 
	C685.712097,469.887787 685.848389,470.427063 685.960815,471.410858 
	C686.006653,474.221771 686.076172,476.588165 686.145752,478.954559 
	C686.105835,479.428711 686.065979,479.902863 685.984436,481.154083 
	C685.671936,486.311371 685.401062,490.691559 684.838318,495.015167 
	C684.172729,494.831177 683.799011,494.703796 683.410767,494.152771 
	C682.693420,489.558167 681.990784,485.387207 681.413086,480.890289 
	C681.335266,479.723938 681.132446,478.883545 680.925171,477.639587 
	C680.316833,475.031586 679.459473,472.862213 679.149536,470.617218 
	C676.813843,453.701599 671.271851,437.736267 664.915161,421.632599 
	C663.744385,418.945435 662.604675,416.619690 661.470215,414.193237 
	C661.475525,414.092499 661.308716,413.979065 661.275391,413.620026 
	C660.617126,412.037354 659.992065,410.813751 659.307495,409.237610 
	C651.846863,392.274200 643.181274,376.398590 631.983032,361.713287 
	C631.470154,360.934204 630.958313,360.436859 630.341431,359.590393 
	C621.178284,348.465424 612.120117,337.689514 602.934448,326.622467 
	C601.693848,325.388519 600.580688,324.445740 599.302979,323.216156 
	C590.906677,315.837311 582.674988,308.745209 574.311707,301.406250 
	C573.586121,300.755035 572.992065,300.350677 572.166138,299.670898 
	C562.348511,292.837921 552.762756,286.280334 542.986450,279.469910 
	C541.833252,278.875885 540.870728,278.534760 539.623596,277.999756 
	C521.571960,266.358337 502.159851,258.665527 481.789673,252.503204 
	C481.038849,252.247086 480.496338,252.171783 479.644501,251.888824 
	C463.607880,248.405869 447.880615,245.130539 431.817535,241.644775 
	C427.285950,241.085037 423.090179,240.735748 418.495667,240.328094 
	C416.755310,240.229126 415.413727,240.188507 413.893677,240.022949 
	C413.715240,239.898010 413.279724,239.886429 413.004425,239.689850 
	C411.857422,239.414764 410.985748,239.336258 409.646545,239.187592 
	C403.924103,239.302094 398.662659,239.378189 393.415588,239.693832 
	C382.258209,240.365005 371.108337,241.160736 359.508514,241.858887 
	C339.423431,243.543457 320.485504,248.319595 301.713257,254.938217 
	C300.978638,255.104111 300.502899,255.273621 299.637329,255.523895 
	C279.455963,262.633362 260.292480,270.967041 242.520447,282.840759 
	C241.477783,283.480438 240.714203,284.051147 239.612549,284.747681 
	C232.521667,289.603363 225.768875,294.333252 218.724060,299.158295 
	C217.788742,300.033142 217.145462,300.812897 216.178558,301.687622 
	C204.758148,312.027466 193.661362,322.272339 182.290894,332.667267 
	C181.037766,333.880188 180.058319,334.943054 178.815231,336.212646 
	C172.413574,344.279846 166.275543,352.140289 159.872131,360.133667 
	C159.305588,360.766663 159.004410,361.266785 158.433807,361.965454 
	C145.795792,379.504120 135.301178,397.879181 127.211617,417.917847 
	C126.557465,419.346802 126.169334,420.587250 125.557800,422.108398 
	C124.411110,425.453339 123.487816,428.517609 122.564529,431.581909 
	C121.667999,433.429657 120.771454,435.277374 119.678253,437.789612 
	C116.145462,451.934326 112.809334,465.414520 109.473221,478.894714 
	C109.382378,479.383606 109.291534,479.872467 109.084366,481.108765 
	C108.207954,486.158356 107.447853,490.460602 106.687759,494.762817 
	C106.433212,494.761780 106.178658,494.760773 105.924110,494.759735 
	C105.555580,490.199036 105.187050,485.638336 104.818527,481.077637 
	C104.874748,480.604187 104.930969,480.130737 104.995544,478.844543 
	C105.040916,472.208130 104.694145,466.351349 105.193184,460.567566 
	C106.303398,447.700226 107.836853,434.869385 109.197815,422.023682 
	C109.446114,421.219177 109.694405,420.414673 110.019386,418.903381 
	C110.971046,414.298950 111.703827,410.362762 112.748604,406.511230 
	C115.490585,396.402924 118.368538,386.331573 121.192322,376.245483 
	C123.383240,371.048859 125.574158,365.852264 127.999435,360.014832 
	C131.433441,352.811218 134.259613,346.031952 137.912094,339.731689 
	C145.063126,327.396637 152.675079,315.328796 160.361511,302.941467 
	C161.419662,301.678558 162.189148,300.605927 163.009155,299.573425 
	C168.991394,292.040924 174.983810,284.516510 181.267487,276.985168 
	C182.060089,276.441254 182.558228,275.901672 183.357269,275.188904 
	C195.478165,264.365753 207.298157,253.715775 219.402618,242.957703 
	C220.324753,242.080841 220.962402,241.312057 221.937088,240.470642 
	C229.910416,235.291428 237.546707,230.184830 245.524078,225.014420 
	C248.180023,223.656052 250.422440,222.205261 252.821548,221.092209 
	C268.590210,213.776428 284.392639,206.533493 300.436340,199.244324 
	C301.125671,198.992630 301.562744,198.763382 302.408081,198.498718 
	C321.835144,194.160477 340.853973,189.857681 360.248962,185.588150 
	C361.106903,185.485123 361.588715,185.348846 362.463135,185.310730 
	C375.435120,184.906494 388.011017,184.259628 400.595215,183.961731 
	C407.031799,183.809341 413.483185,184.281921 420.280792,184.570587 
	C421.120331,184.657944 421.606934,184.646729 422.513336,184.760269 
	C428.190399,185.508621 433.518799,185.779938 438.691254,186.823914 
	C452.462158,189.603378 466.165955,192.715637 480.211975,195.827362 
	C480.975006,196.037155 481.422516,196.115143 482.147766,196.416687 
	C494.613434,201.478592 506.885315,206.118698 518.956604,211.232391 
	C525.797302,214.130264 532.309021,217.804916 539.192139,221.375046 
	C546.292847,225.992981 553.150879,230.396469 560.056519,234.724091 
	C563.109192,236.637131 566.258179,238.396469 569.532471,240.536606 
	C570.713318,241.925446 571.639893,243.101425 572.750427,244.065689 
	C582.446411,252.484879 592.175232,260.866211 602.027100,269.558533 
	C610.998352,279.948608 619.836853,290.038910 628.815186,300.457001 
	C629.589417,301.939270 630.177856,303.121979 630.865479,304.243927 
	C638.389404,316.520508 645.996033,328.747131 653.428711,341.078583 
	C656.153137,345.598511 658.475525,350.360779 660.979126,355.357422 
	C661.681396,357.115112 662.385742,358.527893 663.090088,359.940674 
	C663.170776,360.502411 663.251526,361.064117 663.558044,362.219543 
	C669.469299,381.585754 675.154785,400.358276 680.840210,419.130829 
z"/>
<path fill="#58BBA6" opacity="1.000000" stroke="none" 
	d="
M347.185364,62.895298 
	C347.208038,62.476738 347.230682,62.058174 347.227905,60.907799 
	C347.225525,50.535667 347.085419,40.888687 347.478577,31.263494 
	C347.527557,30.064215 350.261108,28.405897 352.000458,27.979836 
	C354.506866,27.365887 357.242126,27.686069 360.240967,27.697216 
	C361.096954,27.774546 361.591614,27.762270 362.519867,27.831654 
	C383.621552,29.088560 402.600159,34.894344 418.808655,48.292526 
	C419.569061,48.925709 420.329498,49.558887 421.496002,50.591011 
	C424.839478,54.397583 427.776917,57.805218 430.714325,61.212849 
	C430.740845,61.502117 430.870209,61.734043 431.376312,62.349007 
	C435.344025,73.180115 439.037872,83.570839 442.617706,94.218430 
	C442.693420,94.974701 442.883118,95.474113 443.034485,96.406944 
	C443.226288,98.551231 443.456360,100.262093 443.553345,102.425484 
	C443.216766,110.667763 443.002838,118.457275 442.813965,126.247383 
	C442.709961,130.536865 440.819550,132.405060 436.286743,132.036804 
	C430.854980,131.595474 425.375122,131.746033 419.538513,131.437927 
	C408.612915,128.308640 398.064880,125.381699 387.516846,122.454758 
	C386.395203,121.627411 385.273529,120.800064 383.606415,119.675812 
	C376.345245,113.599571 369.629547,107.820229 362.825195,101.746948 
	C361.974182,100.789284 361.211853,100.125557 360.349731,99.127075 
	C353.452240,87.715729 349.874329,75.467270 347.185364,62.895298 
z"/>
<path fill="#58BBA6" opacity="1.000000" stroke="none" 
	d="
M61.216164,214.287735 
	C62.066635,213.736694 62.917103,213.185638 64.191299,212.180328 
	C69.280334,208.580292 73.749573,205.082047 78.648773,202.356750 
	C91.809387,195.035858 106.104668,193.047638 120.956383,194.239517 
	C121.467491,194.443954 121.978600,194.648392 123.147057,194.941620 
	C140.302399,198.440125 155.244659,205.211304 168.747681,215.332703 
	C172.219223,217.934830 173.726105,220.014252 170.786911,224.072510 
	C166.329391,230.227173 162.311493,236.700226 157.805725,243.186981 
	C148.105179,254.724716 136.381226,262.986084 122.983093,268.995056 
	C122.437225,269.163879 121.891350,269.332733 120.756454,269.727997 
	C113.808784,270.971222 107.483139,272.456635 101.084618,272.907379 
	C87.716133,273.849121 75.275101,269.677246 63.014183,264.952637 
	C62.542419,264.646820 62.070656,264.340973 61.074112,263.755920 
	C54.587151,259.948639 48.647781,256.381226 42.655293,252.905411 
	C38.162651,250.299515 35.470997,247.214142 39.193989,242.036392 
	C39.527817,241.614609 39.861649,241.192825 40.497398,240.281738 
	C47.604935,231.290863 54.410549,222.789307 61.216164,214.287735 
z"/>
<path fill="#58BBA6" opacity="1.000000" stroke="none" 
	d="
M516.386353,120.942642 
	C515.937927,121.016182 515.489441,121.089729 514.642578,121.563065 
	C505.320343,130.987259 494.532776,136.423508 481.653259,138.587921 
	C472.790955,138.034241 464.309021,137.984772 455.948914,136.950577 
	C449.052887,136.097504 449.110779,135.580185 450.029205,128.464645 
	C450.390594,125.664787 450.785339,122.869232 451.392273,119.784592 
	C456.020660,102.925476 464.886292,89.624184 479.932037,80.850372 
	C480.489716,80.684677 481.047394,80.518990 482.169312,80.107368 
	C497.012024,74.390701 511.519470,74.633400 526.177612,78.045769 
	C528.877869,78.674385 529.992432,79.823456 529.587524,82.879829 
	C527.997803,94.882004 524.594727,106.192726 518.028198,116.470871 
	C517.193298,117.777702 516.919922,119.443275 516.386353,120.942642 
z"/>
<path fill="#58BBA6" opacity="1.000000" stroke="none" 
	d="
M663.029053,180.008575 
	C663.189270,180.848267 663.349487,181.687973 663.752075,183.177155 
	C664.251709,191.171417 665.082520,198.556107 664.575073,205.847672 
	C664.205078,211.165466 662.071045,216.360504 660.438171,221.781097 
	C659.449707,223.301895 658.746521,224.651855 657.853760,226.289673 
	C655.882507,229.561035 654.035461,232.507950 652.340515,235.539917 
	C651.029480,237.885147 649.514954,238.286636 647.072144,237.032501 
	C629.275085,227.895599 615.428040,215.361511 610.556641,194.751251 
	C610.388794,193.650131 610.109863,192.861038 609.871277,191.617523 
	C609.727295,188.163605 609.542969,185.164108 609.358643,182.164612 
	C609.493408,181.670746 609.628174,181.176865 609.826050,179.978851 
	C609.883179,178.831360 609.877258,178.388031 610.098206,177.706421 
	C610.359680,176.620651 610.394226,175.773132 610.554382,174.606781 
	C610.719788,173.834778 610.759583,173.381607 611.019958,172.739990 
	C611.269470,172.005905 611.298523,171.460281 611.480652,170.605164 
	C611.701233,169.842636 611.768677,169.389587 612.086670,168.710220 
	C612.737976,166.968567 613.138794,165.453247 613.722046,163.609360 
	C616.695374,157.828339 619.445251,152.354279 622.294067,146.932205 
	C623.800171,144.065735 625.922302,143.543015 628.890015,145.119705 
	C640.465393,151.269562 650.597961,159.040421 657.870850,170.149017 
	C658.602173,171.149551 659.333496,172.150085 660.406982,173.607391 
	C661.509033,176.045624 662.269043,178.027100 663.029053,180.008575 
z"/>
<path fill="#58BBA6" opacity="1.000000" stroke="none" 
	d="
M121.046776,144.086685 
	C121.548973,143.715591 122.051178,143.344513 122.877571,143.017242 
	C127.258743,142.536102 131.323639,142.065430 135.371277,141.476364 
	C149.182327,139.466324 162.452545,140.699066 174.726166,147.955917 
	C176.829361,149.199448 178.856934,150.570847 180.919449,151.883179 
	C180.919449,151.883179 181.214264,152.139755 181.556702,152.456757 
	C189.518829,160.668182 195.419922,169.627945 198.850296,180.119278 
	C198.977829,180.638763 199.105377,181.158234 199.442352,182.299393 
	C200.270447,186.147202 200.618118,189.456024 201.571335,192.580093 
	C203.000488,197.263962 201.115036,199.290131 196.679825,199.987137 
	C192.142487,200.700211 187.634323,201.598953 182.709503,202.347198 
	C181.498947,202.377625 180.692261,202.477280 179.437027,202.489685 
	C166.303131,202.566345 154.174042,200.493591 143.869171,192.505798 
	C139.735550,189.301620 136.190857,185.337708 132.378098,181.719589 
	C132.217026,181.242569 132.055939,180.765564 131.508194,179.793732 
	C128.721130,174.204895 126.320740,169.110901 123.920341,164.016891 
	C123.238846,162.040680 122.557358,160.064453 121.599976,157.444138 
	C121.231644,152.562256 121.139214,148.324463 121.046776,144.086685 
z"/>
<path fill="#58BBA6" opacity="1.000000" stroke="none" 
	d="
M746.619995,239.849960 
	C746.517883,240.351593 746.415833,240.853226 746.205444,242.117706 
	C743.184875,261.211823 734.997253,276.646698 720.873291,288.822266 
	C719.976379,289.299957 719.079407,289.777649 717.698975,290.655090 
	C712.815247,293.727783 708.415039,296.400726 704.014771,299.073730 
	C702.139893,299.865082 700.264954,300.656464 697.778381,301.740417 
	C687.629578,304.509369 678.124878,307.128906 668.520386,309.308838 
	C667.065918,309.638977 665.147339,307.924255 663.504272,306.775940 
	C662.305908,302.280365 661.046753,298.164215 659.818726,293.615387 
	C659.609375,291.484619 659.368835,289.786530 659.265381,287.837067 
	C659.235535,287.071350 659.068665,286.556976 658.931396,285.622833 
	C658.716736,282.479309 658.472473,279.755493 658.412109,276.684143 
	C658.496338,273.870758 658.396606,271.404938 658.417053,268.513184 
	C658.656982,265.711792 658.776855,263.336395 659.087830,260.747772 
	C659.234680,259.993317 659.190369,259.452118 659.287842,258.519257 
	C659.556458,256.743896 659.683350,255.360168 660.082886,253.733047 
	C661.667114,249.059158 662.978699,244.628647 664.536072,239.967072 
	C671.317749,225.289780 681.520264,214.057144 695.398254,206.558792 
	C702.964233,202.470871 711.187683,199.599777 719.114563,196.179871 
	C719.562439,196.121674 720.010254,196.063477 721.155762,195.889679 
	C726.407227,194.889023 730.987122,194.118225 735.506958,193.084763 
	C739.507385,192.170059 741.770874,193.236832 742.473877,197.578552 
	C743.796936,205.750183 745.405640,213.875549 746.740479,222.188904 
	C746.723511,222.893005 746.861572,223.428345 746.975586,224.429443 
	C746.841064,229.880127 746.730530,234.865036 746.619995,239.849960 
z"/>
<path fill="#5ABCA7" opacity="1.000000" stroke="none" 
	d="
M122.737984,347.730774 
	C122.386429,347.753632 122.034866,347.776459 121.418312,347.476990 
	C121.148933,345.828522 121.144554,344.502380 121.140175,343.176239 
	C122.023697,341.318085 122.907219,339.459930 123.944550,336.897827 
	C128.374664,324.793884 132.650970,313.393890 136.927261,301.993927 
	C137.237625,301.512299 137.548019,301.030670 138.097046,299.981506 
	C144.301376,288.724640 149.956238,277.845490 156.331406,267.406250 
	C161.406387,259.096100 167.360962,251.323090 173.186447,243.185852 
	C176.019577,239.794388 178.591293,236.528702 181.463776,233.152939 
	C182.581558,232.122879 183.398560,231.202911 184.482269,230.080200 
	C201.125168,212.250137 219.223038,196.623367 239.119278,183.086243 
	C240.287750,182.317841 241.456223,181.549438 243.194794,180.477844 
	C254.536285,174.320038 265.166321,168.182449 276.126831,162.706299 
	C283.955231,158.795059 292.227203,155.771698 300.301239,152.352142 
	C300.773285,152.227295 301.245331,152.102448 302.303284,151.804321 
	C321.883179,147.279266 340.877167,142.927475 360.151794,138.644409 
	C360.957153,138.525879 361.481873,138.338654 362.462280,138.212097 
	C365.935669,137.913864 368.953339,137.554932 372.265991,137.329117 
	C373.371826,137.302628 374.182678,137.143036 375.460358,137.035309 
	C389.287140,137.051544 402.647095,137.015884 416.170990,137.140564 
	C416.903503,137.239410 417.472046,137.177948 418.368439,137.185150 
	C419.129364,137.168625 419.562439,137.083466 420.333801,137.181168 
	C429.551880,138.718369 438.498657,139.739609 447.294800,141.509460 
	C458.866394,143.837738 470.319519,146.754807 482.078369,149.664200 
	C498.736816,157.021286 515.151001,164.108749 531.534119,171.267212 
	C534.402771,172.520630 537.141113,174.072220 539.939636,175.486115 
	C540.323181,175.785080 540.706726,176.084045 541.541260,176.677353 
	C544.167786,178.156784 546.343323,179.341873 548.518799,180.526962 
	C549.048279,181.030624 549.577820,181.534302 550.588867,182.342957 
	C567.042236,195.808975 583.013916,208.969986 598.985657,222.130997 
	C599.369263,222.512695 599.752808,222.894394 600.517029,223.645294 
	C605.770142,229.465332 610.642700,234.916183 615.613281,240.616577 
	C616.070862,241.248199 616.430298,241.630280 616.867065,242.356628 
	C624.011902,252.963623 631.392822,263.028107 638.048462,273.551270 
	C643.452698,282.095978 647.986511,291.191162 652.939331,300.422668 
	C655.637878,306.875580 658.303345,312.947998 660.992188,319.387695 
	C661.480713,321.149506 661.945984,322.544067 662.363281,324.238770 
	C662.721680,325.210327 663.128113,325.881714 663.579529,326.917542 
	C664.255554,329.163879 664.886597,331.045807 665.453735,333.269409 
	C666.092346,335.266907 666.794983,336.922729 667.518433,338.926392 
	C667.603088,340.563934 667.666809,341.853607 667.730530,343.143280 
	C667.473633,343.164032 667.216675,343.184784 666.959778,343.205505 
	C665.677734,340.778931 664.395752,338.352325 663.087769,335.564087 
	C661.682983,332.403229 660.489685,329.492859 658.891357,326.825104 
	C653.487122,317.805176 647.939331,308.871307 642.420532,299.536072 
	C640.002991,295.597687 637.928528,291.758209 635.163574,288.505615 
	C624.673462,276.165344 613.959839,264.015076 603.184814,251.490967 
	C598.408325,247.050095 593.776917,242.912003 588.967346,238.495407 
	C576.702209,229.232956 564.726379,220.093079 552.466003,211.352249 
	C548.348389,208.416672 543.506653,206.496857 538.678467,203.986145 
	C531.510803,200.175354 524.885315,195.961929 517.755981,192.934921 
	C507.838409,188.724045 497.543488,185.402008 487.164856,181.427200 
	C484.577057,180.476990 482.234406,179.799103 479.524170,179.043701 
	C468.946930,176.349365 458.826355,173.277496 448.500183,171.255646 
	C439.798035,169.551788 430.857025,169.067734 421.700439,167.963593 
	C420.938599,167.886414 420.498138,167.889374 419.698059,167.690552 
	C400.231140,165.787155 381.158752,166.030319 361.848633,168.444290 
	C361.036011,168.515350 360.501343,168.657791 359.541382,168.775391 
	C357.034912,169.166260 354.950195,169.564926 352.873230,170.000366 
	C338.840942,172.942291 324.810272,175.891983 310.403320,178.849548 
	C307.859283,179.796173 305.691040,180.732407 303.270233,181.682617 
	C302.711395,181.832123 302.405090,181.967682 301.825897,182.067429 
	C301.041290,182.181854 300.529633,182.332092 299.612549,182.510162 
	C294.981201,184.053879 290.569580,185.190735 286.562622,187.153671 
	C271.969208,194.302750 257.511047,201.727951 242.659042,209.122299 
	C228.544571,219.146744 214.772964,229.097946 200.713226,239.157913 
	C199.816711,240.083664 199.208344,240.900650 198.284210,241.826569 
	C192.860977,246.817596 187.753525,251.699722 182.369171,256.729187 
	C181.059311,257.902771 180.026337,258.928986 178.687546,260.096069 
	C174.490891,264.794922 170.336731,269.156860 166.765579,273.952911 
	C159.924149,283.140930 153.413986,292.575623 146.468231,302.059021 
	C138.179901,316.937653 130.184448,331.662476 122.240204,346.414825 
	C122.094376,346.685608 122.558464,347.284821 122.737984,347.730774 
z"/>
<path fill="#063F66" opacity="1.000000" stroke="none" 
	d="
M362.052643,1096.201660 
	C361.598328,1096.100220 361.144012,1095.999023 359.971741,1095.803833 
	C340.190125,1091.612427 321.126404,1087.514893 301.855652,1083.248901 
	C301.132812,1082.989136 300.617004,1082.897949 299.835205,1082.562500 
	C295.613007,1081.026489 291.656708,1079.734619 287.445648,1078.206909 
	C285.461151,1077.318726 283.731384,1076.666504 281.721924,1075.802979 
	C269.122070,1069.606689 256.801941,1063.621704 244.286148,1057.371460 
	C242.710922,1056.446289 241.331406,1055.786377 239.732193,1054.867432 
	C230.087570,1048.130493 220.509628,1041.861450 211.287796,1035.106201 
	C204.352173,1030.025635 197.873520,1024.321289 191.191406,1018.894775 
	C188.130661,1015.841675 185.069962,1012.788513 181.549744,1009.322937 
	C167.891281,992.515137 154.692291,976.119812 141.493317,959.724426 
	C140.993744,958.740051 140.494156,957.755676 139.472290,956.337830 
	C134.009369,946.907471 129.068741,937.910645 124.128105,928.913818 
	C123.595451,927.704407 123.062798,926.494934 122.208405,924.786255 
	C118.524673,916.205994 115.162689,908.124878 111.800713,900.043823 
	C111.668373,899.487366 111.536034,898.930908 111.216888,897.809631 
	C106.248642,878.184082 101.467194,859.123413 96.685730,840.062683 
	C96.687897,839.566223 96.690063,839.069763 96.615265,837.868530 
	C96.062889,833.781677 95.587486,830.399536 95.248077,826.838623 
	C95.249199,826.111328 95.114319,825.562805 95.034225,824.564697 
	C94.539215,809.439636 93.989418,794.764160 93.439621,780.088684 
	C93.541557,779.603455 93.643509,779.118164 93.754593,777.829224 
	C93.784210,753.364441 93.845467,729.703430 93.810387,706.042480 
	C93.788162,691.054260 93.622406,676.066284 93.521027,661.078186 
	C93.623055,660.283569 93.725090,659.488953 93.800117,657.860657 
	C93.919395,638.774841 94.065674,620.522705 94.211945,602.270569 
	C94.746735,601.391602 95.281532,600.512695 96.011566,598.995361 
	C100.763840,585.438965 109.334419,576.001282 121.256157,569.469543 
	C122.110329,569.216675 122.964500,568.963867 124.403091,568.392578 
	C131.420700,566.878906 137.815475,565.359314 144.299271,564.590820 
	C149.498108,563.974609 154.804947,564.269714 160.465820,564.102417 
	C161.071930,563.608521 161.453064,563.173279 161.454910,562.736511 
	C161.553024,539.473145 161.619141,516.209656 161.803192,492.624969 
	C161.890564,491.853760 161.863327,491.403748 162.023315,490.600708 
	C164.258835,478.315063 165.632202,466.214813 168.542755,454.496368 
	C171.532196,442.460358 176.023209,430.797302 180.037476,418.795074 
	C180.303391,418.299561 180.388916,417.979980 180.730164,417.425293 
	C181.258957,416.098907 181.532043,415.007660 182.036743,413.752106 
	C182.451660,413.067444 182.634964,412.547089 183.129730,411.875671 
	C183.740448,410.880371 184.039658,410.036102 184.567200,408.989685 
	C185.285934,407.681000 185.776352,406.574493 186.550049,405.295105 
	C187.451294,403.731049 188.069260,402.339844 188.922043,400.683960 
	C197.656845,387.672028 206.156860,374.924774 214.915405,362.083313 
	C215.528687,361.367950 215.883438,360.746765 216.542252,359.996277 
	C224.568726,351.916656 232.291153,343.966278 240.280792,335.972778 
	C241.114243,335.269073 241.680496,334.608459 242.602722,333.845612 
	C257.208282,321.840454 272.493927,311.480896 289.268860,302.859314 
	C290.389496,302.217712 291.193604,301.585144 292.348175,300.908813 
	C295.192108,299.687408 297.685638,298.509735 300.453186,297.320923 
	C301.173401,297.016205 301.619598,296.722595 302.443481,296.363403 
	C321.180115,288.422913 340.314850,283.241241 360.325317,279.875366 
	C361.157013,279.794067 361.625336,279.675812 362.490173,279.594177 
	C381.852112,276.672791 400.889832,276.815765 420.178284,278.476746 
	C420.953094,278.680573 421.508453,278.707672 422.473267,278.846130 
	C442.515198,281.067261 461.403870,286.244781 480.185303,292.989441 
	C480.958252,293.372803 481.505219,293.563354 482.364441,293.938171 
	C488.112671,296.417847 493.548645,298.713257 499.107269,301.302612 
	C500.165283,302.040039 501.100677,302.483521 502.298798,303.143860 
	C514.965820,311.181671 527.370178,319.002655 539.857605,327.077393 
	C540.650269,327.832550 541.359863,328.333984 542.260864,329.111450 
	C543.972351,330.661682 545.581116,331.844757 546.998047,333.224854 
	C556.213440,342.200928 565.387207,351.219788 574.644714,360.545654 
	C575.422913,361.653168 576.130981,362.439667 576.952454,363.542969 
	C583.916016,373.656586 590.766113,383.453339 597.639648,393.601471 
	C598.918518,395.877106 600.174011,397.801361 601.500610,400.060242 
	C603.561035,404.230377 605.550293,408.065857 607.521362,412.254883 
	C610.593201,420.451447 614.302673,428.115234 616.635132,436.177368 
	C620.623779,449.963898 623.749817,464.000000 627.209351,478.277283 
	C627.390015,479.026825 627.599426,479.430389 627.625732,480.243256 
	C628.036377,486.412933 628.630127,492.173279 629.156372,498.307983 
	C629.193909,499.430389 629.298950,500.178436 629.248291,501.376587 
	C629.214355,521.076660 629.303284,540.326965 629.520508,559.575806 
	C629.537842,561.110352 630.441711,562.634949 631.390503,564.292969 
	C640.865662,564.845947 649.883789,565.270081 658.901978,565.694214 
	C659.420227,565.835510 659.938416,565.976807 660.996216,566.298828 
	C678.179626,571.673645 688.863525,583.019531 695.079590,598.977051 
	C695.135620,599.541199 695.191650,600.105347 695.417175,601.306152 
	C696.012268,603.927795 696.437805,605.912781 696.732727,608.151611 
	C696.768860,608.925293 696.935669,609.445190 697.045288,610.433044 
	C697.136902,626.578125 697.285706,642.255188 697.434448,657.932312 
	C697.355530,658.725952 697.276611,659.519653 697.209229,661.144592 
	C697.300293,680.624939 697.379883,699.273926 697.459412,717.922974 
	C697.363220,718.718628 697.266968,719.514282 697.193604,721.143433 
	C697.307556,740.624207 697.398621,759.271362 697.489746,777.918579 
	C697.372681,778.713867 697.255676,779.509216 697.175781,781.139771 
	C697.169861,790.659729 697.126709,799.344360 696.901306,808.362976 
	C696.755127,810.502075 696.791138,812.307129 696.702148,814.544373 
	C696.405823,817.992004 696.234558,821.007568 695.874512,824.291870 
	C695.737305,825.411316 695.788757,826.262024 695.703613,827.517639 
	C695.402527,829.622864 695.238098,831.323181 694.880615,833.239197 
	C694.732727,834.007446 694.777954,834.559937 694.688293,835.448242 
	C694.565735,836.493286 694.578125,837.202515 694.590515,837.911743 
	C694.440552,838.381104 694.290588,838.850525 694.021362,840.048401 
	C689.378479,859.254211 684.854858,877.731567 680.331238,896.208862 
	C679.909973,897.252747 679.488647,898.296631 678.859497,899.965698 
	C672.621094,914.178772 666.590454,927.766663 660.559875,941.354614 
	C659.616150,942.604431 658.672424,943.854248 657.445496,945.660828 
	C655.380188,949.379272 653.598083,952.540955 651.815918,955.702637 
	C650.937317,956.928955 650.058716,958.155334 648.875000,959.914917 
	C635.478821,980.449158 620.145752,998.589050 603.059509,1015.273621 
	C602.056641,1016.300171 601.053711,1017.326721 599.658447,1018.693726 
	C581.402100,1034.410034 562.557373,1048.417969 541.692871,1060.114990 
	C539.840393,1061.063110 538.323669,1061.973633 536.460022,1062.949219 
	C526.759644,1067.394775 517.406189,1071.775635 507.716156,1076.139404 
	C506.017578,1076.852905 504.655640,1077.583618 502.922119,1078.350464 
	C495.604095,1080.746094 488.657654,1083.105591 481.388824,1085.468506 
	C480.699860,1085.690674 480.333282,1085.909546 479.575531,1086.090820 
	C475.327606,1087.054810 471.516144,1088.306763 467.606140,1089.013306 
	C452.416290,1091.758789 437.195129,1094.331055 421.985596,1096.967773 
	C421.531616,1096.933228 421.077667,1096.898804 419.852722,1096.916138 
	C400.072052,1096.712402 381.062347,1096.457031 362.052643,1096.201660 
M382.657288,901.285278 
	C391.481659,904.947266 400.274048,905.468933 409.688782,900.969543 
	C410.937775,900.064758 412.186798,899.160034 414.060089,898.061035 
	C416.185455,895.917236 418.310822,893.773499 421.032318,891.337769 
	C421.699890,890.234741 422.367493,889.131714 423.523376,887.521790 
	C424.629517,884.334167 425.735687,881.146545 427.196411,877.678894 
	C427.172516,877.110962 427.148651,876.543030 427.360046,875.181946 
	C427.326324,863.487732 427.292603,851.793518 427.536011,839.284607 
	C427.508118,838.162598 427.480255,837.040588 427.693665,835.049255 
	C428.297943,831.354187 427.953094,827.110840 429.704803,824.078674 
	C433.313019,817.832703 437.704559,811.947388 442.390381,806.438171 
	C448.799957,798.902344 454.776794,791.237000 458.022614,781.094299 
	C458.210815,780.030090 458.399017,778.965881 458.991241,777.203247 
	C459.615936,773.456604 460.240631,769.709900 461.224182,765.281738 
	C461.105255,762.201904 460.986298,759.122009 460.989929,755.281067 
	C460.698364,753.526794 460.406830,751.772522 460.377258,749.651611 
	C460.200623,749.116333 460.023956,748.581055 459.879578,747.276123 
	C457.596039,737.229858 454.044006,727.786255 446.843567,719.390808 
	C445.999939,718.443909 445.156311,717.497070 444.027710,715.963989 
	C437.838562,709.222839 430.787140,703.708984 421.728790,700.106384 
	C421.189331,699.999817 420.649872,699.893188 419.607513,699.280823 
	C414.063110,697.883362 408.518707,696.485901 402.679840,694.741028 
	C402.114807,694.798645 401.549774,694.856262 400.081604,694.725342 
	C396.392639,694.783447 392.703705,694.841614 388.661591,694.617188 
	C388.118103,694.776917 387.574615,694.936646 386.202271,695.042542 
	C377.438019,696.145691 369.285767,698.902100 361.475464,704.010620 
	C360.937683,704.424866 360.399933,704.839172 359.128632,705.379639 
	C354.601288,709.419006 350.073944,713.458435 345.008972,717.837158 
	C344.321198,718.879944 343.633453,719.922729 342.391113,721.342773 
	C339.794250,726.041687 337.197388,730.740601 334.102295,735.799438 
	C333.924377,736.568298 333.746460,737.337219 333.155548,738.678101 
	C332.866882,739.808167 332.578217,740.938293 331.843811,742.447632 
	C331.810059,743.005493 331.776306,743.563354 331.381592,744.788574 
	C331.291107,745.535950 331.200653,746.283386 330.703125,747.448425 
	C330.722748,748.005432 330.742371,748.562378 330.446564,749.859863 
	C330.366638,750.924072 330.286713,751.988342 329.801208,753.560730 
	C329.820129,755.050232 329.839050,756.539795 329.683136,758.842712 
	C329.747131,760.221558 329.811127,761.600464 329.569031,763.499634 
	C329.760803,764.651611 329.952545,765.803528 330.066406,767.792542 
	C330.331848,769.158386 330.597260,770.524170 330.621155,772.411804 
	C330.822296,772.920654 331.023438,773.429565 331.201752,774.626831 
	C331.372864,775.048279 331.543976,775.469666 331.525360,776.555725 
	C332.146973,778.259949 332.768555,779.964233 333.468964,782.380676 
	C338.075714,789.928101 342.427460,797.648132 347.377411,804.963318 
	C350.767609,809.973511 354.990631,814.420166 358.875519,819.820618 
	C359.772827,821.420776 360.670135,823.020874 361.582275,825.422913 
	C362.225983,829.250427 362.869690,833.077942 363.264618,837.699036 
	C363.402832,838.513672 363.541046,839.328247 363.404022,841.021851 
	C363.528809,851.976990 363.653564,862.932068 363.517242,874.494507 
	C363.753204,875.308899 363.989166,876.123230 364.209900,877.622437 
	C364.372101,878.044861 364.534271,878.467285 364.505096,879.469055 
	C364.841095,880.182861 365.177094,880.896729 365.588928,882.317261 
	C368.202240,888.996277 371.827911,894.873169 378.699432,899.009277 
	C379.824921,899.623596 380.950409,900.237915 382.657288,901.285278 
M543.960449,492.294159 
	C543.808716,491.560150 543.656982,490.826141 543.754944,489.299957 
	C542.145935,482.541687 540.536865,475.783417 538.947571,468.336670 
	C538.760803,467.924316 538.574036,467.511963 538.522705,466.370972 
	C536.529968,461.350006 534.537231,456.329041 532.435059,450.697662 
	C532.138428,450.159973 531.841797,449.622314 531.576355,448.380615 
	C529.798096,445.117615 528.019836,441.854645 526.090332,437.935883 
	C524.649963,435.639435 523.209656,433.342987 521.776917,430.430145 
	C521.260437,429.825562 520.744019,429.220947 520.054016,427.977234 
	C518.579773,426.011200 517.105530,424.045166 515.519226,421.458832 
	C514.422424,420.191193 513.325623,418.923523 511.992737,417.034943 
	C503.416107,406.300568 493.696472,396.800232 481.883698,388.847748 
	C481.265381,388.542694 480.647034,388.237640 479.697021,387.349426 
	C473.552643,383.703217 467.622375,379.616302 461.218262,376.504669 
	C448.787231,370.464661 435.872711,365.657196 421.542419,363.654694 
	C420.999512,363.623688 420.456635,363.592682 419.135834,363.156830 
	C399.987915,360.530884 380.933594,360.455597 361.489319,365.172821 
	C360.982361,365.404572 360.475372,365.636322 359.167786,365.782501 
	C351.897614,368.149475 344.432556,370.049469 337.399628,372.984833 
	C324.474731,378.379395 312.215118,385.052490 301.196533,394.816315 
	C300.403931,395.503235 299.611328,396.190155 298.199768,397.122772 
	C291.797424,403.747589 285.395050,410.372375 278.387299,417.237549 
	C277.302765,418.841187 276.218231,420.444824 274.580170,422.422241 
	C272.984039,424.831787 271.387909,427.241364 269.224884,429.890411 
	C268.898346,430.610687 268.571777,431.330994 267.795898,432.450378 
	C267.446075,433.160187 267.096252,433.869995 266.187164,434.847260 
	C265.879059,435.582611 265.570953,436.317932 264.767792,437.565826 
	C262.690369,441.819550 260.612946,446.073273 257.973694,450.762695 
	C252.824783,462.387177 248.674515,474.300140 247.190308,487.687622 
	C247.185440,488.140381 247.180573,488.593140 246.762497,489.686523 
	C246.637146,491.482208 246.511810,493.277924 246.130722,495.708801 
	C246.149292,496.161072 246.167847,496.613342 245.804871,497.777557 
	C245.635834,519.083557 245.448318,540.389465 245.367554,561.695801 
	C245.364426,562.520447 246.386246,563.348999 247.850128,564.424133 
	C265.218567,564.347107 282.586975,564.270142 300.320282,564.472290 
	C300.890717,564.356934 301.461121,564.241577 302.931030,564.397278 
	C321.940918,564.321106 340.950806,564.244995 360.321289,564.446228 
	C360.893494,564.351440 361.465729,564.256653 362.940430,564.417480 
	C381.947632,564.332458 400.954865,564.247437 420.320801,564.440857 
	C420.893433,564.348999 421.466034,564.257141 422.940521,564.423035 
	C441.925568,564.334106 460.910614,564.245117 480.394165,564.435303 
	C480.943604,564.351318 481.493011,564.267334 482.947357,564.426636 
	C501.613983,564.361938 520.280579,564.297241 539.409241,564.519653 
	C540.288818,564.415833 541.168396,564.311951 542.714050,564.420715 
	C543.166138,564.338928 543.618164,564.257080 544.899292,564.095215 
	C545.167908,562.516174 545.655823,560.939026 545.669006,559.357849 
	C545.743896,550.372681 545.814575,541.384827 545.675049,532.401245 
	C545.533447,523.280029 545.146301,514.162659 545.010254,504.217529 
	C544.857666,502.837921 544.705017,501.458344 544.840759,499.299286 
	C544.513611,497.214172 544.186462,495.129089 543.960449,492.294159 
z"/>
</svg>